<svg width="229" height="131" viewBox="0 0 229 131" fill="none" xmlns="http://www.w3.org/2000/svg">
<path d="M82.8713 91L82.0313 86.56H75.7113L74.8713 91H69.4313L74.8313 63H83.1113L88.2313 91H82.8713ZM78.7913 68.2L77.2313 77.52L76.3513 82.28H81.3513L80.4313 77.52L78.8713 68.2H78.7913ZM106.119 63L100.439 91H92.9191L87.2391 63H92.9991L95.1991 75.96L96.5591 84.36H96.7991L98.1591 75.96L100.359 63H106.119ZM108.256 91V63H122.616V67.8H113.736V74.48H121.656V79.12H113.736V86.36H122.776V91H108.256ZM125.873 91V63H137.273C138.58 63.48 139.74 64.32 140.753 65.52C141.766 66.72 142.273 68.1733 142.273 69.88C142.273 72.8933 141.286 75 139.313 76.2V76.36C141.766 77.72 142.993 79.8533 142.993 82.76C142.993 86.0933 141.3 88.84 137.913 91H125.873ZM131.313 74.56H135.273C136.446 73.84 137.033 72.7467 137.033 71.28C137.033 69.8133 136.486 68.6533 135.393 67.8H131.313V74.56ZM131.313 86.36H135.433C135.913 86.0133 136.34 85.4667 136.713 84.72C137.113 83.9733 137.313 83.2267 137.313 82.48C137.313 81.7333 137.153 81.0533 136.833 80.44C136.513 79.8267 136.113 79.3733 135.633 79.08H131.313V86.36ZM157.832 91L156.992 86.56H150.672L149.832 91H144.392L149.792 63H158.072L163.192 91H157.832ZM153.752 68.2L152.192 77.52L151.312 82.28H156.312L155.392 77.52L153.832 68.2H153.752ZM165.522 91V63H179.882V67.8H171.002V74.48H178.922V79.12H171.002V86.36H180.042V91H165.522ZM182.819 85.08H188.579V91H182.819V85.08ZM204.153 91H195.673C193.753 89.24 192.353 87.1467 191.473 84.72C190.593 82.2933 190.153 79.76 190.153 77.12C190.153 74.4533 190.686 71.8267 191.753 69.24C192.82 66.6533 194.313 64.5733 196.233 63H205.953V67.8H198.513C197.82 68.6 197.22 69.8667 196.713 71.6C196.206 73.3067 195.953 75.1333 195.953 77.08C195.953 79 196.18 80.84 196.633 82.6C197.113 84.3333 197.7 85.5867 198.393 86.36H202.233V75.48H207.513V82.2C207.513 85.88 206.393 88.8133 204.153 91ZM223.919 91H215.439C213.519 89.24 212.119 87.1467 211.239 84.72C210.359 82.2933 209.919 79.76 209.919 77.12C209.919 74.4533 210.452 71.8267 211.519 69.24C212.585 66.6533 214.079 64.5733 215.999 63H225.719V67.8H218.279C217.585 68.6 216.985 69.8667 216.479 71.6C215.972 73.3067 215.719 75.1333 215.719 77.08C215.719 79 215.945 80.84 216.399 82.6C216.879 84.3333 217.465 85.5867 218.159 86.36H221.999V75.48H227.279V82.2C227.279 85.88 226.159 88.8133 223.919 91Z" fill="white"/>
<path d="M64.1597 39.8903C64.1597 40.0275 64.2969 40.2333 64.4341 40.2333C64.6399 40.2333 64.7085 40.0961 64.7085 39.9589C64.983 39.9589 65.326 40.0275 65.4632 40.2333L65.5318 40.5078L66.2178 40.5764L66.7667 41.0566L65.9434 41.2624C65.9434 41.6054 66.4236 41.6054 66.6981 41.6054C67.1097 41.6054 67.7271 41.2624 68.0701 41.7426C68.0015 41.8798 67.7957 42.017 67.6585 42.017C67.5899 42.017 67.5899 41.8112 67.5899 41.7426H67.3155L67.5899 42.1542L68.3445 42.4287C68.1387 42.2228 68.0015 42.017 68.4131 42.017L68.8248 42.2915L68.5503 42.5659C68.7562 42.7031 69.0992 42.7717 69.3736 42.7717C69.5794 43.1833 69.7166 43.7321 70.2654 43.7321L70.6771 44.2124L71.0201 44.0065L71.5003 44.5554L72.7352 45.1728L73.4898 46.4077C73.4898 46.6135 73.4898 46.8193 73.3526 47.0251C73.2154 46.9565 73.0096 46.5449 72.7352 46.4763C72.7352 46.4763 72.7352 46.1333 72.6666 46.1333C72.598 46.1333 72.5294 46.4077 72.5294 46.4763C73.1468 46.8879 73.5584 47.5739 74.1758 47.9855C74.1758 48.3972 74.4503 48.8774 74.6561 49.2204C74.5875 49.289 74.1758 49.7692 74.5189 49.7692C74.4503 49.9751 74.5189 50.2495 74.7933 50.2495C74.5875 51.2785 74.4503 52.0332 74.4503 53.0622L74.2444 53.268C74.2444 53.4738 74.1758 53.8169 73.97 53.9541L73.9014 54.3657C73.0782 54.7773 72.8038 56.0808 71.9119 56.4924C71.9119 57.3842 67.6585 60.1284 66.6294 61.1574C66.6294 61.2946 66.6294 61.4319 66.4922 61.4319C66.0806 61.4319 65.8062 60.9516 65.4632 60.9516C65.326 60.9516 65.2574 61.0888 65.2574 61.226L64.2283 62.0493H63.4051C63.1307 62.1865 62.8562 62.4609 62.7876 62.7353C62.2388 62.9411 61.6214 63.2155 61.1412 63.6272C61.0726 63.5586 60.8667 63.4214 60.8667 63.2842C60.8667 63.1469 61.0726 63.1469 61.1412 63.1469C61.347 63.0097 61.4842 62.7353 61.5528 62.4609H62.3074L62.8562 61.9807L62.6504 61.5691L62.1016 61.8435C60.1121 61.9807 60.7295 62.8725 60.1121 62.8725H59.8377L59.0145 63.2155C59.0145 63.49 59.2889 63.6272 59.5633 63.6272H59.6319C59.6319 63.0783 60.6609 63.6958 60.8667 63.833C60.8667 64.3818 60.2493 64.7248 59.7691 64.7248L58.6714 65.2051C58.6714 65.5481 59.0145 65.6167 59.2889 65.6167H59.5633C59.5633 65.9597 59.1517 65.8225 58.9458 65.7539C58.9458 65.8225 58.9458 66.0283 58.8086 66.0283C58.74 66.0283 58.6028 65.8225 58.6028 65.7539L58.3284 65.4795C58.3284 65.6853 58.054 65.6853 57.9168 65.6853C57.9168 66.0969 57.0935 65.8911 57.0249 66.5771C56.7505 66.9887 56.4761 67.4004 56.1331 67.7434L55.7215 67.1946L54.8982 66.8515C54.9668 66.1655 53.6634 66.5085 53.6634 66.0969V66.0283C53.0459 66.2341 52.4285 66.5085 51.9483 66.8515C51.4681 66.7829 50.3704 66.8515 50.3018 67.469H49.5472C49.5472 67.6748 49.3413 67.7434 49.1355 67.7434H48.9983L49.0669 68.155C49.3413 67.812 49.9588 68.0178 50.3018 68.0864C50.5762 67.9492 50.9878 67.812 51.2622 67.812C51.4681 67.812 51.6053 67.812 51.6053 68.0178C51.6739 68.0178 51.8797 68.0864 51.8797 67.9492C51.8797 67.812 51.3308 67.5376 51.8111 67.5376L52.5657 67.0573L52.7715 67.3318L53.1145 67.0573C53.5948 67.126 54.418 67.1946 54.8982 67.0573C54.075 67.5376 55.3785 67.4004 55.5843 67.6748C55.5843 67.9492 54.8982 68.0178 54.6924 68.0178C54.761 68.2236 54.6238 68.3608 54.418 68.3608C54.0064 68.3608 53.8006 68.2236 53.5262 68.6352L52.8401 68.841C52.7715 69.0469 52.5657 69.1841 52.3599 69.1841C52.2913 69.3213 52.0169 69.9387 51.8797 69.9387C51.8111 69.9387 51.8111 69.8015 51.8111 69.8015C51.8111 69.5957 51.8111 69.4585 51.6053 69.4585C51.1936 69.4585 50.782 69.6643 50.439 69.8701C50.2332 69.8015 49.9588 69.8701 49.8902 70.1445L50.5076 70.6933C50.9192 70.7619 51.6739 71.9282 51.9483 72.2712C51.9483 72.5456 52.0169 72.6828 52.2913 72.6828C52.6343 72.6828 52.9773 72.82 53.3204 72.9573C53.3204 73.1631 53.389 73.3689 53.5948 73.4375C53.389 73.6433 53.2517 73.9177 53.1831 74.1921L53.8006 73.7119L54.761 75.0154C54.761 75.6328 54.6238 75.7014 55.3099 75.7014C55.3099 75.9072 55.3785 76.1816 55.5843 76.2502C55.4471 76.3188 54.8982 76.5246 54.8982 76.6619C54.8982 76.7991 55.104 76.7991 55.1726 76.7991C55.1726 76.8677 55.2413 77.0049 55.3099 77.0049C55.5157 77.0049 55.5157 76.5932 55.5157 76.5246H55.9959C56.1331 76.5246 56.2703 76.5246 56.2703 76.7305C56.2703 77.2793 56.1331 77.3479 56.7505 77.4165C56.7505 77.9653 57.5052 77.9653 57.5052 78.9944C57.8482 79.2688 58.1912 79.6118 58.4656 79.9548V80.092L58.8772 80.3664C59.0831 80.2978 59.6319 80.5723 59.8377 80.6409C59.8377 80.8467 59.9063 81.0525 60.1121 81.1211C59.9063 81.3269 59.7691 81.6013 59.7005 81.8757L60.3179 81.3955L61.2784 82.699C61.2784 83.3164 61.1412 83.385 61.8272 83.385C61.8272 83.5908 61.8958 83.8652 62.1016 83.9338L61.4842 84.3455L61.69 84.4827C61.69 84.5513 61.7586 84.6885 61.8272 84.6885C62.033 84.6885 62.033 84.2768 62.033 84.2082H62.5132C62.6504 84.2082 62.7876 84.2082 62.7876 84.4141C62.7876 84.9629 62.6504 85.0315 63.2679 85.1001C63.2679 85.5117 64.0225 85.9233 64.0225 86.1977C64.0225 87.0896 64.9144 87.8442 65.669 88.1873L65.6004 88.9419L66.012 89.3535L66.5608 90.5884L66.4922 91.2058L66.7667 91.8232H66.9725C67.4527 91.8232 67.1097 91.0686 67.4527 91.0686C67.5213 91.0686 67.5213 91.2058 67.5213 91.2058V91.343C67.6585 91.686 68.0015 92.0977 68.2759 92.3035L68.2073 93.2639L68.4817 94.0872L68.962 94.4302C68.962 95.4592 69.5108 94.1558 69.5108 96.0081L70.1282 96.6941C70.4026 96.6255 70.6771 96.7627 70.6771 97.1057L71.2259 97.6545C71.2259 98.1348 71.4317 98.615 71.6375 99.0266C71.5689 99.301 71.7061 99.5068 71.9805 99.5754C71.9119 99.9185 72.1863 99.7813 72.1863 100.056V100.124C72.4608 100.467 72.7352 100.81 72.8724 101.222C72.8724 101.565 73.97 102.251 73.97 102.868L74.3817 103.417C74.3131 103.623 74.3131 103.966 74.5875 103.966C74.7933 104.035 74.8619 104.309 74.8619 104.515L75.3421 104.995C75.2735 105.27 75.1363 105.818 75.5479 105.887C75.8223 106.161 76.1653 106.573 76.1653 106.985C76.3712 107.739 76.7828 108.494 77.1944 109.111H77.3316C77.3316 109.18 76.8514 109.386 76.7828 109.386C76.3712 108.974 76.0967 108.288 75.8909 107.739C76.1653 107.122 75.4107 107.122 74.9991 107.053C74.7933 106.847 74.7933 106.504 74.7933 106.299L74.2444 105.818C74.3131 105.201 73.5584 105.338 73.5584 104.721V104.652C73.0096 104.652 72.941 103.897 72.3235 103.897C72.2549 103.966 71.9805 104.378 71.9805 104.035C71.7747 103.897 71.5003 103.623 71.5003 103.349V103.28L71.0201 102.868L70.7457 102.32C70.5399 102.251 70.4712 101.977 70.4712 101.771V101.634L70.2654 101.702L70.1968 101.496L69.9224 101.359C69.7852 100.879 69.5794 100.33 69.1678 99.9185C69.1678 99.7127 68.8248 99.6441 68.6876 99.6441C68.2073 99.0266 67.5899 98.615 67.1783 97.9976C66.9039 97.929 66.6981 97.6545 66.4236 97.6545C66.4236 97.5173 66.4236 97.3801 66.2864 97.3801C66.012 97.3801 65.9434 97.3801 65.9434 97.1057C65.669 97.1057 65.5318 97.2429 65.5318 97.5173V97.6545L64.9144 97.3801C64.9144 96.9685 64.2969 97.1743 64.2969 96.7627C64.2969 95.665 63.5423 96.5569 63.5423 96.0767V95.8023C63.3365 95.665 62.9935 95.4592 62.719 95.4592C62.5818 95.4592 62.376 95.4592 62.3074 95.5964C62.2388 95.5964 61.7586 95.8023 61.7586 95.8023C61.7586 95.8709 61.8958 95.8709 61.8958 95.8709C62.1702 96.7627 63.1993 97.8604 63.1993 98.615L63.6795 99.1638L63.4737 99.6441C63.1993 99.6441 62.9249 99.0266 62.8562 98.8208C62.7876 98.8208 61.1412 97.4487 60.5923 97.3801C60.5237 97.3115 59.3575 95.7336 58.9458 95.7336C58.8772 95.7336 58.8086 95.8709 58.8086 95.9395L58.4656 96.1453L58.74 96.3511C58.74 96.6255 58.8086 97.1057 59.0145 97.3115C59.2203 97.3115 59.2889 97.5173 59.2889 97.7232C59.2889 97.7918 59.2889 98.1348 59.0831 98.1348C58.9458 98.1348 58.8086 97.929 58.74 97.8604C58.1912 97.8604 58.1226 97.0371 57.5052 96.9685L57.368 96.2825C57.0935 95.8709 56.2017 95.0476 56.2017 94.5674C55.9959 94.4988 55.9273 94.2244 55.9273 94.0186L55.4471 93.5383C55.3099 93.4697 55.2413 93.3325 55.2413 93.1953C55.2413 92.5093 54.6924 93.1267 54.6924 92.3721L54.2808 92.0291V91.686C54.2122 91.6174 53.9378 91.5488 53.9378 91.4116C53.9378 91.2744 54.418 91.2058 54.5552 91.2058L54.761 90.9314L54.6238 90.657C54.6238 90.5884 54.6238 90.5198 54.5552 90.5198C54.2808 90.5198 53.8006 91.1372 53.8006 90.4512V90.3826L52.4971 89.5593V89.6279L52.7715 90.1082C53.0459 90.2454 53.2517 90.5884 53.3204 90.8628C53.0459 90.8628 52.8401 90.657 52.7029 90.4512L52.2227 90.1768C51.6739 90.1768 51.6053 89.3535 50.9878 89.2849L50.8506 88.5989C50.5762 88.1873 49.6844 87.364 49.6844 86.8838C49.4785 86.8152 49.4099 86.5408 49.4099 86.335L48.9297 85.8547C48.7925 85.7861 48.7239 85.6489 48.7239 85.5117C48.7239 84.8257 48.1751 85.4431 48.1751 84.6885L47.7635 84.3455V84.0024C47.6949 83.9338 47.4204 83.8652 47.4204 83.728C47.4204 83.5908 47.9007 83.5222 48.0379 83.5222L48.2437 83.2478L48.1065 82.9734C48.1065 82.9048 48.1065 82.8362 48.0379 82.8362C47.7635 82.8362 47.2832 83.4536 47.2832 82.7676V82.699L45.9112 81.8757C45.8426 81.3955 44.9507 81.2583 44.9507 80.7781L43.9903 79.6118C43.5786 79.6118 43.3728 78.8572 43.3042 78.5141C43.167 78.3083 42.7554 77.6223 42.5496 77.6223C42.3438 77.6223 42.481 77.9653 42.3438 77.9653C41.9322 77.9653 40.4229 76.5932 40.2857 76.3188L39.531 75.9758C39.4624 75.9758 39.3252 75.9758 39.3252 75.8386C39.3252 75.7014 39.4624 75.427 39.188 75.427C39.0508 75.6328 38.502 75.77 38.502 75.6328C38.502 75.4956 38.845 75.427 38.845 75.2212C38.845 75.1526 38.159 75.0154 38.0218 74.9468C36.6497 75.3584 37.0613 74.6037 36.1695 74.6037C35.4834 74.8782 34.7974 74.9468 34.7974 75.77L34.4544 75.5642L34.2486 75.77C33.9741 75.77 32.9451 78.1711 32.8765 78.3083L32.5335 78.7886L32.2591 78.6514C31.7788 79.1316 31.4358 79.8862 31.1614 80.435C31.23 80.3664 31.6416 79.9548 31.6416 80.2978C31.6416 80.7095 31.3672 80.7095 31.2986 81.0525C31.0928 81.4641 30.887 81.8757 30.544 82.1501C30.544 82.4246 30.2695 82.4932 30.2009 82.8362L29.6521 83.385L29.3777 84.0024C28.8289 84.4827 28.28 84.9629 27.6626 85.3745C27.6626 85.9919 26.8394 86.0605 26.8394 86.6094C26.7022 86.8152 26.3591 87.2268 26.1533 87.2268C26.0161 87.2268 26.0161 87.021 26.0161 86.9524V86.8152C26.4277 86.8152 26.7708 85.8547 26.908 85.5117C26.9766 85.5117 27.1138 85.5117 27.1138 85.3745C27.1138 85.2373 26.9766 85.0315 26.8394 84.9629C26.908 84.6885 27.0452 84.4141 27.251 84.2082C27.251 83.5222 26.6336 83.1106 26.0161 83.1106C25.7417 83.1106 25.3987 83.1792 25.3987 83.5222L24.8499 83.1792L25.0557 84.071L23.958 85.8547C23.958 86.1977 23.6836 86.335 23.6836 86.678C23.1348 86.6094 23.2034 87.6384 22.7232 87.6384C22.3115 87.6384 21.9685 87.5012 21.9685 88.05C21.7627 88.1873 21.6255 88.4617 21.6255 88.7361C21.5569 88.5989 21.4197 88.3931 21.2825 88.3931C21.1453 88.3931 21.1453 88.5989 21.1453 88.6675C20.5964 88.5989 21.0767 89.1477 20.5964 89.1477C20.5278 89.6965 19.979 89.9023 19.979 90.4512L19.7046 91.0686H19.2244L18.8814 91.5488C18.8127 91.8232 18.8814 92.5093 18.4011 92.5093C17.7151 92.5093 18.3325 93.0581 17.7151 93.0581L17.5093 92.2349L18.4011 91.1372C18.4011 90.3826 18.95 90.314 18.95 89.6279C19.293 89.6279 19.3616 89.2849 19.3616 89.0105L19.293 88.5989L20.1162 87.5012L20.4592 86.1977C20.665 86.1977 20.7336 86.1291 20.7336 85.9233C20.7336 85.7175 20.5964 85.4431 20.9395 85.4431C20.8709 85.2373 20.8709 84.8257 21.2139 84.8943L21.0081 84.6199L20.4592 85.4431C20.4592 86.1291 20.1848 86.1977 19.636 86.4722C19.5674 86.7466 19.3616 87.021 19.3616 87.2954C19.293 87.1582 19.0872 86.9524 18.95 86.9524C18.8127 86.9524 18.6755 87.5698 18.6069 87.707C19.4988 87.7756 17.0977 89.4907 17.0977 90.0395C16.5488 90.0395 16 92.3721 15.0395 92.3721L14.4221 93.7441C13.8047 93.6755 14.0791 94.1558 13.8047 94.1558H13.7361L13.4617 94.5674C13.4617 95.1162 12.9128 94.7046 12.9128 95.1162C12.4326 95.8709 10.8547 98.3406 10.2373 98.6836C10.2373 98.6836 10.2373 98.8208 10.1687 98.8208C10.1687 98.8208 10.0315 98.272 10.0315 98.0662L10.5803 96.8313C10.9919 96.6255 11.1977 95.2534 11.6094 94.9104C11.8152 94.4302 12.364 92.1663 12.707 91.8918C12.7756 91.4116 13.1186 91 13.1186 90.4512L13.3931 89.9023C13.3931 89.5593 13.6675 89.5593 13.6675 89.2849L13.9419 88.8047C13.9419 88.5303 14.0105 88.2559 14.2163 88.05L14.8337 86.5408C14.8337 86.1977 15.657 84.2082 15.7942 84.071C15.7942 83.8652 15.8628 83.5222 16.0686 83.385C16.0686 83.1106 16.343 82.9734 16.343 82.699L16.8232 82.2873C16.8918 81.8757 17.3035 81.3269 17.5093 80.9839C17.5779 80.7095 17.7837 80.5723 17.8523 80.2978L18.1953 79.749C18.1953 79.406 18.2639 78.3769 18.7441 78.3769C18.7441 78.2397 18.7441 77.8967 18.5383 77.8967H18.4697L18.8127 77.2107L18.8814 76.5246L19.0872 76.3874C19.0872 76.3874 19.0872 76.113 19.1558 76.113C19.293 76.113 19.3616 76.3188 19.4302 76.3874C19.9104 76.3874 19.9104 75.8386 19.9104 75.4956H19.636C19.3616 75.4956 17.5779 75.9072 17.2349 76.0444L16.6174 75.9072L16.5488 75.7014C16.5488 75.5642 16.5488 75.427 16.686 75.3584H15.8628C15.1082 75.3584 14.4221 75.5642 13.7361 75.8386C13.5303 75.3584 12.9814 75.9758 12.6384 75.9758C12.5698 75.9758 12.5012 75.9072 12.5012 75.8386L11.2664 76.2502C11.1977 76.3188 11.1291 76.3874 11.0605 76.3874C10.9919 76.3874 10.9233 76.3188 10.8547 76.2502C10.5117 76.3874 10.1687 76.456 9.82568 76.5246V76.5932C9.55126 76.5932 9.27685 76.6619 9.07104 76.7991C8.93383 76.6619 8.65942 76.7305 8.52221 76.7991L7.90478 76.8677H7.69897L6.12108 77.4851C6.25829 77.0049 5.02343 77.7595 4.88622 77.8281C3.65135 77.3479 1.93626 78.4455 0.7014 78.4455C0.770004 78.1711 2.6223 77.4851 2.75951 77.4165C2.89672 77.8967 3.71996 77.1421 3.99437 77.1421C4.5432 77.1421 7.42455 76.2502 8.24779 75.9758L7.76757 75.5642L6.73852 75.9758C6.60131 75.9758 6.60131 75.8386 6.3955 75.9072L5.98388 75.77L5.57226 76.2502C5.29784 76.0444 4.95482 75.77 4.95482 75.427C4.95482 75.1526 5.50365 74.9468 5.70946 75.1526L5.91527 75.084C6.05248 75.084 6.18969 75.084 6.25829 75.2212L7.15014 74.8782H7.56176C7.97338 74.3293 8.79662 74.1235 9.41406 73.9177C9.61987 74.2607 10.1687 73.5061 10.3745 73.4375L10.5117 73.0259C11.1977 72.3398 12.5698 71.7224 13.5303 71.791L14.2163 71.3794C14.1477 71.3794 13.6675 71.1736 13.6675 71.105C13.6675 70.9678 14.6965 70.5561 14.8337 70.4875C15.314 70.6247 15.9314 70.5561 16.4116 70.4189V70.0073L17.4407 69.5957C17.8523 69.6643 18.4697 69.1841 18.95 69.1841C19.5674 69.1841 19.4988 68.155 19.979 68.155C20.1848 68.155 20.5278 68.2236 20.5278 67.8806C20.8709 67.469 21.2825 67.126 21.6941 66.8515C22.1743 66.9201 22.1743 67.0573 22.3801 66.6457L23.615 66.1655C24.0266 65.7539 24.6441 64.7248 24.6441 64.1074C25.3301 64.3132 25.7417 63.0783 25.8103 62.4609C25.8789 61.6377 26.4277 62.3237 26.4277 61.9121C26.4277 61.7063 26.2905 61.5691 26.2219 61.4319C26.7708 61.2946 26.2219 60.0598 26.7022 60.0598H26.7708C26.7708 59.9226 26.7708 59.7168 26.908 59.7168C28.1428 59.7168 27.1824 59.1679 27.8684 59.1679L27.937 57.9331C28.5545 56.6296 28.6917 54.9145 29.9951 54.2285C29.6521 54.2285 29.6521 53.6796 29.7207 53.4738C30.2695 53.4738 30.2695 52.7878 30.3381 52.3762L30.887 51.8274C30.887 51.2099 31.7788 50.4553 31.8474 50.0437C32.2591 49.7692 31.9846 49.0832 32.3277 48.8088L32.6021 48.3972C32.6707 47.9169 32.9451 47.8483 33.0137 47.5053C33.0823 47.5053 33.2195 47.5053 33.2195 47.4367C33.2195 47.3681 33.0823 47.2309 33.0137 47.2309C32.7393 47.4367 32.3963 47.5053 32.0532 47.4367L31.5044 47.0937L31.7788 46.8879C31.9846 46.8879 33.2881 47.1623 33.2881 46.8879C33.2881 46.7507 32.6021 46.4763 32.4649 46.4077C32.4649 47.2995 30.8184 46.1333 30.6126 45.9274L32.0532 45.8588V45.5844C32.3963 45.3786 32.7393 45.2414 33.1509 45.1042C33.2195 45.1042 33.3567 45.1042 33.3567 45.0356C33.3567 44.8298 33.2195 44.6926 33.0823 44.624C32.7393 44.624 32.7393 44.2124 32.2591 44.2124L27.7998 44.0065L27.937 43.7321C28.9661 43.8007 30.0637 43.6635 31.0928 43.5263L30.8184 43.3891C28.6231 43.5263 26.1533 43.3891 23.958 43.6635C21.2139 44.0751 17.7837 44.7612 14.9023 44.7612C14.8337 45.1042 13.8733 45.1728 13.5989 45.1728C13.3931 45.1728 13.1186 45.1042 13.1186 44.8298L14.4907 44.2124C15.1082 44.281 16 44.0065 16.686 44.0065C16.8232 44.0065 17.4407 44.0065 17.4407 43.7321C17.0977 43.6635 17.0977 43.3891 16.7546 43.3891H16.686L16.2058 43.1833C17.0291 43.1833 17.8523 42.9775 18.6069 42.8403C18.6069 42.4973 19.636 42.4973 19.636 42.4287C19.636 42.3601 19.4302 42.2915 19.3616 42.2915C19.4988 42.1542 19.293 42.017 19.1558 42.017C17.9895 42.0856 16.8232 42.2228 15.657 42.1542C16.2058 42.017 16.7546 41.8798 17.3035 41.8798C17.5093 41.8798 18.4011 41.8112 18.4011 41.7426C18.4011 41.5368 18.2639 41.3996 18.1267 41.331L15.4512 41.3996C15.4512 41.5368 15.4512 41.674 15.314 41.674C15.1768 41.674 15.1082 41.5368 15.0395 41.4682C13.05 41.4682 11.1291 42.017 9.07104 42.017L8.79662 42.2915L3.58275 42.4973L3.37694 42.7717C3.17113 42.7717 3.03392 42.7717 3.03392 42.5659C3.03392 42.2228 2.96532 41.8798 3.30834 41.8798C3.85716 41.8798 3.92577 41.8798 4.40599 41.674H4.74901L5.64086 41.331C5.57226 40.7822 6.60131 40.7822 6.94433 40.7822H7.97338L9.68847 40.0961C9.82568 39.9589 10.0315 39.9589 10.1687 39.9589C10.5803 39.9589 11.2664 39.6159 11.8152 39.5473C11.7466 39.2729 11.9524 38.9299 12.2954 38.9299C13.3245 38.9299 15.9314 38.5183 16.8232 38.1066C17.0977 38.1752 17.4407 38.2438 17.7151 38.1066C17.7151 37.7636 18.4011 37.7636 18.6069 37.7636H18.8127L19.3616 37.352C20.3906 37.0776 22.1057 36.9404 23.1348 36.8718C23.272 36.7346 23.5464 36.5974 23.7522 36.5974C24.9185 36.5974 25.9475 36.666 27.1138 36.5288L27.7312 36.1171L28.4172 36.0485C28.7603 36.0485 29.3777 36.3229 29.5835 35.9113C30.2009 35.6369 31.23 36.1171 32.1218 35.7055C32.8079 35.9113 33.4253 35.5683 34.1113 35.5683L37.8845 35.4311C38.2962 35.4311 38.7078 35.4311 39.1194 35.5683V35.4997C39.3252 35.2253 39.3252 34.8823 39.3938 34.6079L39.8054 34.1276C40.1485 32.8242 40.9717 31.1777 41.9322 30.2172C41.9322 29.737 42.2066 29.394 42.2066 28.9138C42.6182 28.7079 43.0984 28.5707 43.0984 28.0219C43.2356 28.0219 43.3728 28.0219 43.3728 27.8161C43.3728 27.6103 43.4414 27.5417 43.6472 27.5417C43.6472 27.3359 43.5786 27.0615 43.8531 27.0615H44.1961L44.5391 26.5812C44.5391 25.9638 45.0193 25.072 45.4309 24.5917C45.3623 24.1801 45.3623 24.1801 45.774 24.1801C45.774 24.1801 45.9798 24.1801 45.9798 24.1115C45.9798 24.0429 45.4995 23.8371 45.4309 23.8371L45.7054 23.151L46.3228 22.9452L46.8716 21.8476C47.2146 21.8476 47.4204 20.9557 47.489 20.6813L48.1065 19.6523C48.3123 19.6523 48.5181 19.7209 48.5181 19.9953C48.5181 20.2011 48.3809 20.4069 48.2437 20.6127C48.1751 20.8185 48.1065 21.0929 47.9007 21.1615C47.9007 21.6418 47.6949 21.6418 47.6949 21.9162C47.489 22.0534 47.4204 22.2592 47.4204 22.465V22.6022C47.2146 22.6022 47.0088 22.7394 47.0088 22.9452V23.0138C46.803 23.151 46.7344 23.4255 46.7344 23.6313C46.5286 23.6999 46.46 23.9743 46.46 24.1801L46.1856 24.6603L46.117 25.1406L45.9112 25.3464C45.8426 26.3068 45.4995 27.3359 44.8135 28.0905L44.4705 28.1591C44.4705 28.4335 44.5391 28.9138 44.1961 28.9138H43.8531C43.7845 29.3254 43.6472 30.423 43.3042 30.7661C43.167 30.7661 43.0298 30.9719 43.0298 31.1091V31.2463C42.824 31.4521 42.7554 31.7265 42.6868 32.0009C42.8926 31.9323 43.0298 32.1381 42.9612 32.3439C43.6472 31.5893 43.9217 29.5998 45.1565 29.4626L45.2251 30.2172C44.9507 30.2858 44.3333 30.4916 44.3333 30.8347C44.3333 31.1091 44.4705 31.4521 44.6077 31.7265C44.7449 31.7265 44.7449 31.1777 44.7449 31.1091C44.8135 30.423 45.6368 30.9033 45.774 29.1196C46.0484 29.051 46.5972 28.1591 46.803 27.8847C46.9402 27.8847 47.2146 28.0219 47.2146 28.2277V28.6393L46.803 28.9138C47.0088 29.2568 47.146 29.737 47.146 30.1486C47.146 30.3544 47.0774 30.5602 46.803 30.5602C46.803 31.0405 46.5286 31.3835 46.46 31.7951C46.3228 31.9323 46.1856 32.2753 46.1856 32.4811C46.1856 32.6869 46.2542 32.9614 46.46 33.0986C46.46 33.8532 45.9798 33.3044 45.9112 34.059C45.9112 34.3334 45.774 34.6079 45.5681 34.8137V35.2939L45.2937 35.5683L46.8716 35.6369H46.9402C47.146 35.4311 47.2146 35.0195 47.2146 34.7451C47.3518 34.7451 47.489 34.7451 47.489 34.6079C47.489 34.402 47.5577 34.3334 47.7635 34.3334L48.2437 33.9218C48.3123 33.9218 48.6553 33.9218 48.6553 33.7846L48.5867 33.4416C48.7925 33.373 48.9297 33.1672 48.9297 32.9614C49.4099 32.5497 49.6844 31.1091 50.1646 31.1091H50.3018C50.3704 30.9033 50.8506 29.9428 50.8506 29.6684C51.125 29.737 51.1936 29.394 51.4681 29.394C51.6053 29.394 51.6739 29.5312 51.6739 29.5998C51.6739 29.737 51.5367 30.08 51.7425 30.08C52.0855 30.08 52.1541 30.3544 52.0855 30.6288C52.2227 30.6288 52.2913 30.4916 52.2913 30.423C52.2913 30.1486 52.2227 29.9428 52.5657 29.9428C52.7029 29.9428 52.8401 30.0114 52.8401 30.1486C52.8401 30.4916 52.6343 30.7661 52.4971 31.0405L52.0169 31.3149C52.0169 31.9323 51.6053 31.7265 51.6053 32.6869L51.3308 32.9614L50.782 32.8242C50.782 32.0009 51.3308 33.1672 51.3308 31.4521C51.3995 31.3835 51.6739 31.2463 51.6739 31.1091C51.6739 31.0405 51.4681 31.0405 51.3995 31.0405C50.9878 31.1777 50.6448 31.4521 50.3018 31.7265C50.1646 32.0695 49.9588 33.7846 49.5472 33.8532L48.9297 34.8137L48.7925 35.4311L49.4099 35.1567L49.6844 34.6079V34.1962L50.1646 34.2648V33.6474C50.5762 33.7846 50.3704 33.03 50.7134 33.03C50.9878 33.03 50.9878 33.373 50.9878 33.5102C50.9878 33.7846 50.7134 33.8532 50.7134 34.1276C50.7134 34.2648 50.2332 35.9113 50.1646 36.1171C50.9192 36.1857 51.8111 36.4601 52.4285 36.4601C52.3599 36.8032 52.9087 36.8032 53.1145 36.8032C53.3204 36.8032 53.732 36.8032 53.8692 37.009L55.6529 37.1462L55.8587 37.4206H56.5447C56.6819 37.5578 56.8191 37.695 56.9563 37.695C57.0935 37.695 57.0935 37.4892 57.0935 37.4206L57.711 37.4892L57.9854 37.2148C58.397 37.5578 59.0145 37.7636 59.5633 37.8322L60.1121 38.4497C60.4551 38.4497 60.7981 38.6555 61.1412 38.6555L61.8958 39.2043C61.8958 38.6555 62.2388 39.2043 62.3074 39.3415C62.9935 39.3415 63.4051 39.8903 64.1597 39.8903ZM43.3042 53.8169C43.51 53.6796 43.5786 53.3366 43.5786 53.1308L44.1961 52.4448C44.1961 51.896 44.7449 51.8274 44.8135 51.2099L44.5391 50.7297C43.9217 50.7297 44.0589 51.7587 43.3728 52.1704C43.3728 53.268 41.5205 53.6796 41.5205 55.875C41.4519 55.9436 41.2461 56.1494 41.2461 56.2866C41.2461 56.4238 41.4519 56.4238 41.5205 56.4238L42.0694 55.9436C42.0008 55.7378 42.0008 55.3261 42.3438 55.3261L42.824 54.7773C43.4414 54.9145 43.4414 54.4343 43.9903 54.4343H44.1275L43.9903 55.1889C42.8926 55.1889 43.7845 55.8064 43.167 56.1494C43.167 56.2866 43.2356 56.7668 43.0298 56.7668L42.8926 56.6982C42.6868 57.1784 42.6868 57.7273 42.0008 57.7273L41.7263 58.2761C41.8636 58.3447 42.0694 58.5505 42.0694 58.6877C42.0694 58.8249 41.8636 58.8249 41.7949 58.8249C41.7263 59.0307 41.7263 59.6482 41.4519 59.6482C41.1775 59.6482 41.0403 59.7168 41.0403 59.9912C40.9717 60.0598 40.7659 60.1284 40.7659 60.2656C40.7659 60.3342 40.9717 60.4028 41.0403 60.4028C41.5891 60.4028 43.0984 59.7854 43.5786 59.6482L44.0589 59.2365C44.2647 59.2365 44.4705 59.1679 44.5391 58.9621C44.8135 58.7563 45.1565 58.6191 45.4995 58.4819C45.9798 58.4819 45.9798 58.4819 45.9798 58.0017L46.803 58.2075L46.8716 58.0017C46.8716 57.7273 46.5972 57.7273 47.146 57.7273C47.2832 57.5901 47.489 57.5901 47.6263 57.5901H47.7635L48.2437 57.1784L49.2727 57.0412L49.3413 56.4924H49.8216C49.8216 56.3552 49.8902 56.2866 50.0274 56.2866H50.1646C50.6448 55.9436 51.6053 55.5319 52.2227 55.5319L52.9087 55.1203C52.9773 54.9145 53.1831 54.8459 53.389 54.8459C53.389 54.5029 53.6634 54.4343 53.9378 54.5029L54.4866 54.2971C54.9668 54.4343 54.6238 53.8855 54.9668 53.8855C55.4471 53.8855 56.4075 53.7483 56.4075 53.1994C56.4075 53.0622 56.3389 52.8564 56.6133 52.8564L56.7505 52.6506L57.368 52.7192L58.3284 51.4157C58.2598 51.2785 58.054 50.5925 57.9168 50.5925C57.8482 50.5925 57.8482 50.7983 57.8482 50.7983L57.0249 50.6611C57.0249 49.7006 55.6529 50.3181 55.6529 49.4948V49.3576C52.9087 49.1518 50.5762 48.1914 47.6949 48.1914C47.2832 48.1914 47.2146 48.5344 47.2146 48.8774C47.0088 48.8774 46.9402 49.0832 46.9402 49.289C46.9402 49.5634 46.9402 49.7692 46.5286 49.7692H46.3914C46.2542 50.3181 46.0484 50.7983 45.8426 51.2785L45.2251 51.896V52.3762L45.0193 52.7878C44.3333 52.1018 44.4019 53.4738 44.4019 53.8169H43.3042ZM68.4131 57.3842C68.0701 57.3842 67.6585 57.7273 67.3841 57.9331C67.4527 58.6877 67.5899 58.9621 66.7667 58.9621C66.7667 59.0307 66.7667 59.1679 66.6981 59.1679C66.5608 59.1679 66.4922 58.8935 66.4922 58.8249L66.012 58.2761L65.669 58.4819L66.0806 59.1679L65.669 59.4423L65.4632 59.0993L65.2574 59.3737C64.9144 59.3737 64.7772 59.3737 64.7772 59.7854C64.7772 59.7854 64.7772 59.9226 64.8458 59.9226C64.983 59.9226 65.0516 59.7168 65.1202 59.6482L65.6004 59.511C65.6004 59.854 65.326 59.854 65.326 60.197L65.9434 59.9912C66.2864 60.0598 66.6981 60.197 66.6981 59.7168C67.2469 59.0307 67.9329 58.3447 68.6189 57.7959C68.5503 57.7959 68.2073 57.4528 68.4817 57.4528H68.5503L69.991 56.8354C70.5399 56.0122 71.3631 55.3261 72.0491 54.6401C72.1863 54.6401 72.2549 54.5715 72.2549 54.4343C72.2549 54.2971 72.2549 54.1599 72.4608 54.1599L72.941 53.611C73.0096 53.611 73.1468 53.6796 73.1468 53.5424C73.1468 53.4738 73.0782 53.268 73.2154 53.268H73.3526C73.4212 53.1994 73.4898 53.1308 73.4898 53.0622C73.4898 52.8564 73.284 52.6506 73.1468 52.5134C73.1468 52.4448 73.1468 52.3762 73.0782 52.3762C72.8038 52.3762 72.4608 53.5424 72.3921 53.611C72.1177 54.0913 71.5003 54.6401 71.0201 54.9145C70.4712 54.8459 70.7457 55.3947 70.334 55.3947C69.648 55.8064 68.8934 56.7668 68.4131 57.3842ZM57.9854 64.5876L58.1912 64.176C57.9854 64.2446 57.9854 63.9016 57.9854 63.833C57.7796 63.833 55.7215 64.9992 55.6529 65.0678C55.6529 65.2737 55.3785 65.3423 55.2413 65.3423L54.9668 65.6167V65.6853C54.9668 65.8911 55.104 65.8911 55.2413 65.8911C55.5157 65.8911 55.8587 65.7539 56.0645 65.6167C56.4761 65.6167 56.4761 65.1364 56.8877 65.1364H56.9563C57.1622 64.7934 57.5738 64.5876 57.9854 64.5876ZM29.8579 78.9944L29.7207 80.092L28.3486 81.2583V81.7385L28.8975 81.8071C29.2405 81.2583 30.4068 80.3664 30.4068 79.749C30.4068 79.406 30.1323 79.1316 29.8579 78.9944ZM40.9031 57.7959C40.6973 57.9331 40.6973 58.2761 40.6973 58.4819L39.9427 58.2761C39.874 58.6191 39.6682 58.8249 39.5996 59.1679L39.0508 59.4423C39.0508 59.6482 39.4624 59.7168 39.5996 59.7168C39.8054 59.7168 40.1485 59.6482 40.3543 59.5796L40.6287 58.7563L41.1775 58.1389C41.3833 58.1389 41.4519 57.8645 41.4519 57.7273L40.9031 57.7959ZM62.2388 58.7563C62.033 58.6877 61.7586 58.7563 61.5528 58.9621C61.347 58.9621 61.0726 58.9621 60.9353 59.1679C60.5923 59.4423 59.9063 60.197 59.3575 60.197C59.2889 60.3342 59.0831 60.4028 58.9458 60.4028H58.8086L58.1226 61.0888L58.2598 61.0202H58.3284L59.4261 60.54C59.9063 60.3342 60.3179 60.2656 60.7295 59.9912L61.0726 59.4423C61.2784 59.511 61.6214 59.6482 61.6214 59.3051L62.5132 58.6191H62.2388V58.7563ZM30.0637 74.7409L29.5835 75.2212C29.5149 75.8386 29.1719 75.4956 29.1719 76.5246C29.1719 76.8677 29.4463 76.8677 29.7207 76.8677L29.8579 76.113L30.3381 75.4956L30.1323 74.7409C30.2695 74.7409 30.544 74.7409 30.544 74.5351C30.544 74.3979 30.4068 74.2607 30.2695 74.2607C30.0637 74.2607 30.0637 74.6723 30.0637 74.7409ZM28.0056 78.3083C27.7998 78.6514 27.1824 79.5432 27.1824 79.9548C27.1824 80.1606 27.3196 80.2292 27.4568 80.2292L27.7312 80.1606C28.0056 79.6804 28.2114 79.1316 28.4172 78.5828L28.0056 78.3083ZM66.0806 55.9436H65.7376C65.1888 55.9436 65.1888 56.4238 64.7085 56.4238C64.7085 57.247 64.0911 57.3156 63.4051 57.4528L63.1993 58.0017L62.8562 58.2761C62.8562 58.3447 62.9249 58.4819 62.9935 58.4819C63.0621 58.4819 63.0621 58.3447 63.0621 58.2761C63.4737 58.2761 63.5423 57.7959 63.8853 57.7959H63.9539C64.5027 57.3842 65.0516 56.7668 65.4632 56.218L66.0806 55.9436ZM45.2251 48.0542C45.1565 48.6716 44.6077 48.6716 44.6077 49.1518L44.3333 49.632C44.3333 49.7692 44.4705 49.9751 44.6077 49.9751C44.7449 49.9751 44.8821 49.7692 44.8821 49.632L45.4309 48.5344C45.4995 48.4658 45.9112 48.26 45.9112 48.1914C45.9112 48.1228 45.3623 48.0542 45.2251 48.0542ZM21.4883 81.7385C21.0767 81.6699 20.3906 82.5618 20.3906 82.9048C20.3906 83.1792 20.5964 83.2478 20.8023 83.2478L21.3511 82.2873C21.5569 82.3559 21.5569 81.9443 21.5569 81.8071C21.5569 81.8071 21.5569 81.5327 21.4883 81.5327V81.7385ZM22.2429 41.2624C22.2429 41.5368 22.3801 41.7426 22.6545 41.7426C22.929 41.7426 23.6836 41.5368 23.958 41.4682L24.9185 41.2624C24.9871 41.2624 25.2615 41.2624 25.2615 41.1938H25.1929L22.2429 41.2624ZM17.5093 93.3325C17.7151 93.3325 17.7837 93.4697 17.7837 93.6069C17.7837 94.0186 17.4407 94.5674 17.0291 94.5674C16.9605 94.5674 16.8232 94.4988 16.8232 94.4302C16.8232 94.0186 17.2349 93.6069 17.5093 93.3325ZM23.2034 79.1316C23.2034 79.4746 22.929 79.6118 22.929 79.9548L22.0371 80.1606C22.0371 80.435 22.3115 80.5037 22.5173 80.5037H22.5859C22.5859 80.3664 22.6545 80.2292 22.7918 80.2292C22.929 80.2292 23.0662 80.3664 23.1348 80.5037C23.0662 80.2978 22.9976 79.749 23.3406 79.749L23.7522 78.9258L23.2034 79.1316ZM66.6981 97.929L67.1097 98.5464L66.7667 98.958L66.0806 98.4778C66.1492 97.9976 66.2178 97.929 66.6981 97.929ZM60.1807 90.2454C59.7005 90.2454 59.6319 90.314 59.5633 90.7942L60.2493 91.2744L60.5923 90.8628L60.1807 90.2454ZM52.5657 27.5417V28.4335C52.5657 28.5707 52.5657 28.7079 52.3599 28.7079C52.2227 28.7079 52.0169 28.5707 51.8797 28.4335C51.8797 28.4335 51.7425 28.4335 51.7425 28.3649C51.7425 28.2277 52.2227 27.9533 52.3599 27.8847C52.0855 27.7475 51.8797 27.5417 52.4285 27.5417H52.5657ZM62.1702 85.3059C62.1702 85.5803 61.8958 85.5117 61.8958 86.1291H62.8562L62.7876 85.5803L62.3074 85.5117H62.4446L62.1702 85.3059ZM68.4131 93.8127C68.4131 93.6069 68.4131 93.2639 68.6189 93.1267C68.8248 93.1267 69.0306 93.2639 69.305 93.2639L69.3736 93.8127H68.4131ZM38.4334 60.8144C38.3648 61.0202 38.159 61.226 37.9531 61.226V61.7749L38.4334 61.7063L38.9822 61.1574L38.4334 60.8144ZM53.3204 37.352C53.3204 38.1066 53.8006 38.1066 54.418 38.1066C54.418 37.695 53.6634 37.4206 53.3204 37.352ZM58.5342 90.1768C58.5342 90.7256 58.74 90.9314 59.2889 90.9314C59.2889 91 59.4261 91.4802 59.4947 91.4802C59.6319 91.4802 59.6319 91.0686 59.6319 91C59.2203 90.657 58.74 90.3826 58.397 89.9709L58.5342 90.1768ZM29.9951 76.8677V77.2793C29.9951 77.7595 30.2695 77.8967 30.7498 77.8967C30.7498 77.4165 30.3381 77.1421 29.9951 76.8677ZM9.89428 75.2898C9.41406 75.2898 8.24779 75.3584 8.24779 75.9758C8.52221 75.9072 9.89428 75.3584 9.89428 75.2898ZM52.5657 27.5417C52.4285 27.4045 52.2913 27.2673 52.2913 27.1301C52.2913 26.8556 52.6343 26.8556 52.7715 26.8556C52.9087 26.8556 53.1145 26.8556 53.1145 26.9929C53.1145 27.1987 52.7029 27.4731 52.5657 27.5417ZM54.6924 62.4609L54.0064 62.8039C54.0064 62.9411 54.1436 63.0783 54.2808 63.0783C54.6238 63.0783 54.8982 62.7353 55.1726 62.5295L54.6924 62.4609ZM25.9475 43.9379L26.565 43.8693C26.7708 43.8693 26.9766 43.9379 26.9766 44.2124V44.281H26.4963C26.2219 44.281 25.9475 44.281 25.9475 43.9379ZM21.9685 82.1501C21.8999 82.4246 21.6941 82.6304 21.6941 82.9048C21.6941 83.042 21.8999 83.1106 22.0371 83.1106L22.3115 82.6304L21.9685 82.1501ZM18.1953 45.2414L18.8814 45.1728C19.0872 45.1728 19.2244 45.31 19.2244 45.5158L18.6755 45.5844C18.4011 45.5844 18.1953 45.5158 18.1953 45.2414ZM24.5754 44.1438L25.6045 44.281L25.4673 44.5554C25.1929 44.5554 24.5754 44.4868 24.5754 44.1438ZM16.8232 45.5844L17.8523 45.653L17.7151 45.9274H17.5779C17.3721 45.9274 16.8232 45.9274 16.8232 45.5844ZM57.368 37.7636C57.6424 37.9008 57.9854 38.038 58.3284 38.038C58.397 38.038 58.4656 38.038 58.4656 37.9694C58.4656 37.8322 57.711 37.6264 57.5052 37.6264C57.4366 37.6264 57.368 37.695 57.368 37.7636ZM45.4995 37.0776C45.6368 37.0776 45.7054 37.009 45.7054 36.8718C45.7054 36.666 45.6368 36.5288 45.5681 36.3915C45.4309 36.3915 45.2251 36.3915 45.2251 36.5974C45.2251 36.8032 45.3623 36.9404 45.4995 37.0776ZM63.9539 61.0202C63.9539 61.3632 63.6795 61.0202 63.6795 61.3632L64.2283 61.4319C64.2283 61.0888 64.5027 61.2946 64.5027 61.0202H63.9539ZM57.368 88.5303V88.5989C57.368 88.7361 57.2994 88.8047 57.2994 88.9419C57.2994 89.1477 57.6424 89.0791 57.711 89.0791L57.7796 88.8047C57.711 88.6675 57.5738 88.5303 57.4366 88.5303H57.368ZM26.0161 81.5327C26.0161 82.0129 26.0847 81.9443 26.4963 82.0129V81.5327H26.0161ZM46.1856 82.4246L46.803 83.1792C46.2542 83.1792 46.1856 82.9048 46.1856 82.4246ZM15.4512 90.5198C15.4512 90.7256 15.5884 90.8628 15.7942 90.8628L16 90.7942C16 90.5884 15.8628 90.5198 15.657 90.5198H15.4512ZM60.4551 93.6755H60.7295L60.4551 93.4697C60.4551 93.4011 60.5237 93.1267 60.3865 93.1267C60.2493 93.1267 60.2493 93.3325 60.2493 93.4011C60.2493 93.5383 60.3179 93.6755 60.4551 93.6755ZM51.6739 30.4916L51.125 30.08L51.2622 30.6288L51.6739 30.4916ZM56.0645 38.7927C56.0645 38.9299 56.2017 39.2729 56.4075 39.2729C56.4761 39.2729 56.5447 39.2043 56.5447 39.0671L56.0645 38.7927ZM69.9224 44.2124V44.281C69.9224 44.3496 69.9224 44.4182 70.0596 44.4182C70.1282 44.4182 70.2654 44.4182 70.334 44.3496V44.281C70.334 44.2124 70.1968 44.2124 70.1282 44.2124H69.9224ZM25.8789 73.2317V73.3003C25.8789 73.3689 25.8789 73.5061 25.9475 73.5061C26.0847 73.5061 26.1533 73.3689 26.1533 73.2317C26.1533 73.1631 26.0847 73.1631 26.0847 73.1631L25.8789 73.2317ZM63.1307 60.6772C63.1307 60.8144 63.1993 60.9516 63.3365 60.9516C63.4051 60.9516 63.4051 60.7458 63.4051 60.6772C63.4051 60.6772 63.4051 60.6086 63.3365 60.6086L63.1307 60.6772ZM23.2034 78.3769C23.2034 78.5141 23.272 78.6514 23.4092 78.6514C23.4778 78.6514 23.5464 78.5828 23.5464 78.5141C23.5464 78.3769 23.4092 78.3769 23.3406 78.3769H23.2034ZM62.9935 86.4036V86.4722C62.9935 86.5408 62.9935 86.678 63.1307 86.678C63.1993 86.678 63.2679 86.5408 63.2679 86.4722C63.2679 86.4036 63.1993 86.335 63.1307 86.335L62.9935 86.4036ZM41.2461 57.3156V57.3842C41.2461 57.4528 41.2461 57.5901 41.3833 57.5901C41.4519 57.5901 41.5205 57.4528 41.5205 57.3842C41.5205 57.3156 41.4519 57.247 41.3833 57.247L41.2461 57.3156ZM24.0952 77.6909L24.0266 78.0339C24.0266 78.1711 24.1638 78.1711 24.301 78.1711L24.0952 77.6909ZM18.0581 87.2268C18.0581 87.364 18.1267 87.5012 18.2639 87.5012C18.3325 87.5012 18.3325 87.4326 18.3325 87.364C18.3325 87.2268 18.2639 87.2268 18.1267 87.2268H18.0581ZM59.6319 63.9702C59.6319 64.1074 59.7005 64.176 59.8377 64.176C59.9063 64.176 60.0435 64.176 60.1121 64.1074L59.6319 63.9702ZM61.004 57.9331V58.0017C61.004 58.2075 61.4156 58.0703 61.4842 58.0017L61.004 57.9331ZM71.7747 103.006C71.7747 103.074 71.8433 103.28 71.9805 103.28C72.0491 103.28 72.0491 103.211 72.0491 103.143C72.0491 103.006 71.9119 103.006 71.7747 103.006ZM42.4124 33.5102V33.4416C42.4124 33.373 42.4124 33.2358 42.2752 33.2358C42.2066 33.2358 42.138 33.373 42.138 33.4416L42.4124 33.5102ZM32.6021 77.8281V77.9653C32.6021 77.9653 32.6021 78.1025 32.6707 78.1025C32.7393 78.1025 32.8079 77.9653 32.8079 77.8967C32.8079 77.8281 32.8079 77.7595 32.7393 77.7595C32.6707 77.7595 32.6707 77.8281 32.6021 77.8281ZM29.3777 82.699C29.5149 82.699 29.6521 82.5618 29.7207 82.4246C29.4463 82.4246 29.4463 82.4246 29.3777 82.699ZM54.9668 66.1655V66.2341C54.9668 66.3027 54.9668 66.4399 55.104 66.4399C55.1726 66.4399 55.2413 66.3027 55.2413 66.2341L54.9668 66.1655ZM72.1863 46.7507V46.8193C72.1863 46.8879 72.1863 47.0251 72.3235 47.0251C72.3921 47.0251 72.4608 46.8879 72.4608 46.8193L72.1863 46.7507ZM62.3074 57.1784C62.3074 57.247 62.376 57.4528 62.4446 57.4528C62.5818 57.4528 62.5818 57.3156 62.5818 57.247L62.3074 57.1784ZM61.004 94.636C61.004 94.7046 61.0726 94.9104 61.1412 94.9104C61.2784 94.9104 61.2784 94.7732 61.2784 94.7046L61.004 94.636ZM66.355 55.5319C66.355 55.6005 66.4236 55.8064 66.4922 55.8064C66.6294 55.8064 66.6294 55.6692 66.6294 55.6005L66.355 55.5319ZM58.4656 64.176C58.4656 64.2446 58.5342 64.4504 58.6028 64.4504C58.74 64.4504 58.74 64.3132 58.74 64.2446L58.4656 64.176ZM63.0621 56.6982C63.0621 56.7668 63.1307 56.904 63.1993 56.904C63.2679 56.904 63.3365 56.8354 63.3365 56.7668C63.3365 56.6982 63.2679 56.6296 63.1993 56.6296C63.1993 56.6296 63.1307 56.6982 63.0621 56.6982ZM57.9854 64.5876V64.862C58.1226 64.862 58.1912 64.6562 58.1912 64.5876H57.9854ZM48.5867 35.9799C48.5867 35.9113 48.5867 35.8427 48.5181 35.8427H48.3123L48.3809 36.0485H48.5181L48.5867 35.9799ZM30.2695 81.1897C30.2695 81.2583 30.2695 81.3955 30.3381 81.3955H30.544C30.544 81.2583 30.4068 81.1897 30.2695 81.1897ZM49.6844 70.4189C49.6844 70.4875 49.6844 70.6933 49.8216 70.6933C49.8902 70.6933 49.8902 70.5561 49.8902 70.4875L49.6844 70.4189ZM11.1291 74.8782L10.9233 75.084C10.9233 75.1526 10.9919 75.1526 11.0605 75.1526C11.1291 75.1526 11.1977 75.084 11.1977 75.0154L11.1291 74.8782ZM64.5713 60.4714V60.54C64.5713 60.6086 64.5713 60.7458 64.6399 60.7458C64.7085 60.7458 64.7772 60.6086 64.7772 60.54L64.5713 60.4714ZM55.6529 77.6223C55.6529 77.6909 55.6529 77.8281 55.7901 77.8281H55.9273C55.9273 77.6909 55.7901 77.6223 55.6529 77.6223ZM24.8499 82.699C24.8499 82.7676 24.9185 82.9734 25.0557 82.9734C25.1243 82.9734 25.1243 82.9048 25.1243 82.8362L24.8499 82.699ZM51.125 30.9719C51.125 30.9033 51.0564 30.7661 50.9192 30.7661C50.8506 30.7661 50.8506 30.7661 50.8506 30.8347V30.9033L51.125 30.9719ZM19.9104 70.5561V70.6247C19.9104 70.7619 19.979 70.7619 20.0476 70.7619H20.1162V70.6933C20.1162 70.5561 19.979 70.5561 19.9104 70.5561ZM66.2178 92.3721C66.2178 92.4407 66.1492 92.5093 66.1492 92.5779H66.355V92.5093C66.355 92.4407 66.2864 92.3721 66.2178 92.3721ZM19.5674 70.8991C19.4988 70.8305 19.3616 70.8305 19.293 70.8305L19.4988 71.0364L19.5674 70.8991ZM10.4431 75.2898L10.2373 75.427C10.2373 75.4956 10.3059 75.4956 10.3059 75.4956C10.3745 75.4956 10.4431 75.427 10.4431 75.3584V75.2898ZM61.5528 95.1848C61.5528 95.2534 61.6214 95.322 61.69 95.322H61.7586C61.7586 95.2534 61.69 95.1848 61.6214 95.1848H61.5528ZM17.1663 75.1526C17.0977 75.1526 17.1663 75.3584 17.1663 75.3584C17.2349 75.2898 17.2349 75.2212 17.1663 75.1526Z" fill="white"/>
</svg>
